<svg width="800" height="600" xmlns="http://www.w3.org/2000/svg">
  <!-- Background -->
  <rect width="800" height="600" fill="#f8f9fa"/>
  
  <!-- Header -->
  <rect x="0" y="0" width="800" height="80" fill="#1f77b4"/>
  <text x="400" y="45" text-anchor="middle" fill="white" font-size="24" font-family="Arial, sans-serif" font-weight="bold">Consumer Analytics Dashboard</text>
  
  <!-- Sidebar -->
  <rect x="0" y="80" width="200" height="520" fill="#e9ecef" stroke="#dee2e6"/>
  <text x="100" y="110" text-anchor="middle" fill="#495057" font-size="16" font-weight="bold">Navigation</text>
  <text x="20" y="140" fill="#6c757d" font-size="14">📊 Business Overview</text>
  <text x="20" y="165" fill="#6c757d" font-size="14">👥 Customer Segments</text>
  <text x="20" y="190" fill="#6c757d" font-size="14">📈 Demand Forecast</text>
  <text x="20" y="215" fill="#6c757d" font-size="14">💡 Business Insights</text>
  
  <!-- Main Content Area -->
  <rect x="200" y="80" width="600" height="520" fill="white" stroke="#dee2e6"/>
  
  <!-- KPI Cards -->
  <rect x="220" y="100" width="130" height="80" fill="#d4edda" stroke="#c3e6cb" rx="5"/>
  <text x="285" y="125" text-anchor="middle" fill="#155724" font-size="12" font-weight="bold">Total Revenue</text>
  <text x="285" y="145" text-anchor="middle" fill="#155724" font-size="18" font-weight="bold">$2.5M</text>
  <text x="285" y="165" text-anchor="middle" fill="#155724" font-size="10">↗ +15% growth</text>
  
  <rect x="370" y="100" width="130" height="80" fill="#cce5ff" stroke="#99d6ff" rx="5"/>
  <text x="435" y="125" text-anchor="middle" fill="#004085" font-size="12" font-weight="bold">Customers</text>
  <text x="435" y="145" text-anchor="middle" fill="#004085" font-size="18" font-weight="bold">992</text>
  <text x="435" y="165" text-anchor="middle" fill="#004085" font-size="10">Active users</text>
  
  <rect x="520" y="100" width="130" height="80" fill="#fff3cd" stroke="#ffeaa7" rx="5"/>
  <text x="585" y="125" text-anchor="middle" fill="#856404" font-size="12" font-weight="bold">Transactions</text>
  <text x="585" y="145" text-anchor="middle" fill="#856404" font-size="18" font-weight="bold">5,000</text>
  <text x="585" y="165" text-anchor="middle" fill="#856404" font-size="10">2-year period</text>
  
  <rect x="670" y="100" width="110" height="80" fill="#f8d7da" stroke="#f5c6cb" rx="5"/>
  <text x="725" y="125" text-anchor="middle" fill="#721c24" font-size="12" font-weight="bold">Categories</text>
  <text x="725" y="145" text-anchor="middle" fill="#721c24" font-size="18" font-weight="bold">5</text>
  <text x="725" y="165" text-anchor="middle" fill="#721c24" font-size="10">Product lines</text>
  
  <!-- Chart Area 1 - Customer Segmentation -->
  <rect x="220" y="200" width="270" height="180" fill="#f8f9fa" stroke="#dee2e6" rx="5"/>
  <text x="355" y="220" text-anchor="middle" fill="#495057" font-size="14" font-weight="bold">Customer Segmentation (RFM)</text>
  
  <!-- Pie Chart Simulation -->
  <circle cx="355" cy="290" r="60" fill="#ff6b6b" stroke="white" stroke-width="2"/>
  <path d="M 355 290 L 355 230 A 60 60 0 0 1 395 250 Z" fill="#4ecdc4"/>
  <path d="M 355 290 L 395 250 A 60 60 0 0 1 415 290 Z" fill="#45b7d1"/>
  <path d="M 355 290 L 415 290 A 60 60 0 0 1 395 330 Z" fill="#f9ca24"/>
  <path d="M 355 290 L 395 330 A 60 60 0 0 1 355 350 Z" fill="#6c5ce7"/>
  
  <!-- Legend -->
  <rect x="430" y="240" width="10" height="10" fill="#ff6b6b"/>
  <text x="445" y="250" fill="#495057" font-size="10">Champions (15%)</text>
  <rect x="430" y="255" width="10" height="10" fill="#4ecdc4"/>
  <text x="445" y="265" fill="#495057" font-size="10">Loyal (25%)</text>
  <rect x="430" y="270" width="10" height="10" fill="#45b7d1"/>
  <text x="445" y="280" fill="#495057" font-size="10">Potential (20%)</text>
  <rect x="430" y="285" width="10" height="10" fill="#f9ca24"/>
  <text x="445" y="295" fill="#495057" font-size="10">At Risk (18%)</text>
  <rect x="430" y="300" width="10" height="10" fill="#6c5ce7"/>
  <text x="445" y="310" fill="#495057" font-size="10">Lost (22%)</text>
  
  <!-- Chart Area 2 - Revenue Trend -->
  <rect x="510" y="200" width="270" height="180" fill="#f8f9fa" stroke="#dee2e6" rx="5"/>
  <text x="645" y="220" text-anchor="middle" fill="#495057" font-size="14" font-weight="bold">Revenue Trend</text>
  
  <!-- Line Chart Simulation -->
  <polyline points="530,350 550,340 570,330 590,320 610,310 630,300 650,290 670,280 690,270 710,260 730,250 750,240" 
            fill="none" stroke="#1f77b4" stroke-width="3"/>
  <circle cx="530" cy="350" r="3" fill="#1f77b4"/>
  <circle cx="590" cy="320" r="3" fill="#1f77b4"/>
  <circle cx="650" cy="290" r="3" fill="#1f77b4"/>
  <circle cx="710" cy="260" r="3" fill="#1f77b4"/>
  <circle cx="750" cy="240" r="3" fill="#1f77b4"/>
  
  <!-- Axes -->
  <line x1="530" y1="360" x2="750" y2="360" stroke="#6c757d" stroke-width="1"/>
  <line x1="530" y1="240" x2="530" y2="360" stroke="#6c757d" stroke-width="1"/>
  
  <!-- Chart Area 3 - Category Performance -->
  <rect x="220" y="400" width="560" height="180" fill="#f8f9fa" stroke="#dee2e6" rx="5"/>
  <text x="500" y="420" text-anchor="middle" fill="#495057" font-size="14" font-weight="bold">Category Performance</text>
  
  <!-- Bar Chart Simulation -->
  <rect x="250" y="450" width="80" height="100" fill="#1f77b4" opacity="0.8"/>
  <rect x="350" y="470" width="80" height="80" fill="#ff7f0e" opacity="0.8"/>
  <rect x="450" y="480" width="80" height="70" fill="#2ca02c" opacity="0.8"/>
  <rect x="550" y="490" width="80" height="60" fill="#d62728" opacity="0.8"/>
  <rect x="650" y="495" width="80" height="55" fill="#9467bd" opacity="0.8"/>
  
  <!-- Labels -->
  <text x="290" y="570" text-anchor="middle" fill="#495057" font-size="10">Electronics</text>
  <text x="390" y="570" text-anchor="middle" fill="#495057" font-size="10">Clothing</text>
  <text x="490" y="570" text-anchor="middle" fill="#495057" font-size="10">Home</text>
  <text x="590" y="570" text-anchor="middle" fill="#495057" font-size="10">Books</text>
  <text x="690" y="570" text-anchor="middle" fill="#495057" font-size="10">Sports</text>
  
  <!-- Values -->
  <text x="290" y="440" text-anchor="middle" fill="#495057" font-size="10" font-weight="bold">$575K</text>
  <text x="390" y="460" text-anchor="middle" fill="#495057" font-size="10" font-weight="bold">$512K</text>
  <text x="490" y="470" text-anchor="middle" fill="#495057" font-size="10" font-weight="bold">$487K</text>
  <text x="590" y="480" text-anchor="middle" fill="#495057" font-size="10" font-weight="bold">$463K</text>
  <text x="690" y="485" text-anchor="middle" fill="#495057" font-size="10" font-weight="bold">$458K</text>
</svg>